<?xml version="1.0" encoding="utf-8"?>
<!-- Generator: Adobe Illustrator 21.0.0, SVG Export Plug-In . SVG Version: 6.00 Build 0)  -->
<svg version="1.1" id="Layer_1" xmlns="http://www.w3.org/2000/svg" xmlns:xlink="http://www.w3.org/1999/xlink" x="0px" y="0px"
	 viewBox="0 0 553 309" style="enable-background:new 0 0 553 309;" xml:space="preserve">
<style type="text/css">
	.st0{fill:#00998A;}
	.st1{fill:#B7B7B7;}
	.st2{fill:#163350;}
	.st3{fill:#6D6D6D;}
</style>
<g>
	<g>
		<path class="st0" d="M37.2,127.4c103.1-10.9,206.2-21.8,310.9-32.8c-5.1-8.6-8.4-14.5-12.7-21.8c-3.3-5.6-7.6-5.2-11.6-4.4
			c-26.1,5.2-52.2,10.4-78.3,15.7L37.2,127.4z"/>
		<path class="st1" d="M37.5,134h334.1l-8.5-14.2c-4.4-7.8-5.6-8.9-13.4-8.1c-30.8,2.5-61.6,4.4-92.4,6.5
			c-24.2,1.6-48.4,3.1-72.5,4.7c-30.8,2.1-61.6,4.2-92.5,6.3L37.5,134z"/>
	</g>
	<path class="st2" d="M41.6,118c1.1-0.2,2.2-0.4,3.5-0.7C135.7,95.5,226.3,73.7,317,52l1.4-0.3c0,0,0,0,0,0c15.4-4,22.7-1.5,31,11.2
		c12.8,19.5,25.6,38.9,38.2,58.5c5.1,8,12,11.7,21.7,11.6c23.9-0.3,47.8-0.1,71.7-0.4c3.3,0,8.5-1.3,9.5-3.5
		c1.2-2.8,0.2-7.8-1.8-10.5c-9.6-13.6-19.8-26.9-29.9-40.2c-3.2-4.2-7.9-5-12.9-5c-19.3,0-38.5-0.3-57.8,0.2
		c-7.4,0.2-11.5-2.8-15.9-8.5c-4.6-5.8-4.2-6-6.1-9.1c-3.3-5.2-2-7.7,4.4-7.8l62-0.6c0.1,0,0.1-0.1,0.1-0.1
		C421,30.6,408.7,16.4,385.6,17l-32.7,0.6c-13.5-0.5-26.6,1.6-39.3,6c-1.7,0.6-3.5,1.2-5.2,1.8l-0.3,0.1L41.6,118z"/>
</g>
<g>
	<path class="st2" d="M63.2,222.9v15.8H7.5v-83.4h55.1v15.8H27.3v17.7h29.8v15.8H27.3v18.2H63.2z"/>
	<path class="st2" d="M134,238.8l-18.5-27.9L97,238.8H74.2l30-43l-28-40.4h22.8l16.7,25.2l16.6-25.2H155l-28,40.4l29.9,43H134z"/>
	<path class="st2" d="M227.7,162.4c5.3,4.7,8,11.6,8,20.8c0,9-2.7,15.9-8,20.6c-5.3,4.7-13.3,7-23.8,7h-14v27.9h-19.8v-83.4h33.8
		C214.4,155.4,222.3,157.7,227.7,162.4z M212.6,191.5c1.9-1.8,2.9-4.5,3-8.3c0-3.9-1-6.7-2.9-8.5c-1.9-1.8-4.9-2.6-8.9-2.6h-14v22
		h14C207.8,194.1,210.7,193.2,212.6,191.5z"/>
	<path class="st2" d="M276.8,208.6h-9.2v30.1h-19.8v-83.4h33.8c21.2,0,31.8,8.9,31.8,26.7c0,12.7-5.5,20.8-16.6,24.4l19.9,32.2h-22
		L276.8,208.6z M267.5,191.9h14c7.8,0,11.8-3.3,11.8-9.8c0-3.4-1-6-2.9-7.6c-1.9-1.6-4.9-2.4-8.9-2.4h-14V191.9z"/>
	<path class="st2" d="M386,222.9v15.8h-55.7v-83.4h55.1v15.8h-35.3v17.7H380v15.8h-29.8v18.2H386z"/>
	<path class="st2" d="M414.3,239.1c-5-1-9.8-2.6-14.4-4.8v-17.8c9.3,4.9,19.5,7.4,30.7,7.4c4.3,0,7.5-0.7,9.5-2.2c2-1.5,3-3.4,3-5.8
		s-0.9-4.2-2.7-5.4c-1.8-1.2-5-2.4-9.6-3.7l-7.5-2.1c-4.4-1.2-8.2-2.7-11.4-4.3c-3.2-1.6-6-4.1-8.3-7.4c-2.3-3.3-3.4-7.6-3.4-12.8
		c0-8.6,2.6-15.1,7.9-19.6c5.2-4.5,12.6-6.7,22.2-6.7c5.7,0,10.7,0.5,15.1,1.5c4.3,1,8.8,2.6,13.3,4.7v17.2
		c-8.4-4.5-17.8-6.7-28.4-6.7c-3.9,0-6.6,0.7-8.1,2c-1.5,1.3-2.3,3.2-2.3,5.7c0,1.7,0.4,3,1.1,4c0.7,1,1.9,1.8,3.4,2.5
		s3.8,1.4,6.9,2.3l7.6,2.1c4.7,1.3,8.7,2.9,12.1,4.6c3.4,1.8,6.2,4.4,8.4,7.8c2.2,3.4,3.4,7.9,3.4,13.3c-0.1,8-3,14.3-8.6,18.9
		c-5.7,4.6-13.5,6.9-23.5,6.9C424.7,240.6,419.3,240.1,414.3,239.1z"/>
	<path class="st2" d="M489.2,239.1c-5-1-9.8-2.6-14.4-4.8v-17.8c9.3,4.9,19.5,7.4,30.7,7.4c4.3,0,7.5-0.7,9.5-2.2c2-1.5,3-3.4,3-5.8
		s-0.9-4.2-2.7-5.4c-1.8-1.2-5-2.4-9.6-3.7l-7.5-2.1c-4.4-1.2-8.2-2.7-11.4-4.3c-3.2-1.6-6-4.1-8.3-7.4c-2.3-3.3-3.4-7.6-3.4-12.8
		c0-8.6,2.6-15.1,7.9-19.6c5.2-4.5,12.6-6.7,22.2-6.7c5.7,0,10.7,0.5,15.1,1.5c4.3,1,8.8,2.6,13.3,4.7v17.2
		c-8.4-4.5-17.8-6.7-28.4-6.7c-3.9,0-6.6,0.7-8.1,2c-1.5,1.3-2.3,3.2-2.3,5.7c0,1.7,0.4,3,1.1,4c0.7,1,1.9,1.8,3.4,2.5
		s3.8,1.4,6.9,2.3l7.6,2.1c4.7,1.3,8.7,2.9,12.1,4.6c3.4,1.8,6.2,4.4,8.4,7.8c2.2,3.4,3.4,7.9,3.4,13.3c-0.1,8-3,14.3-8.6,18.9
		c-5.7,4.6-13.5,6.9-23.5,6.9C499.6,240.6,494.2,240.1,489.2,239.1z"/>
</g>
<g>
	<g>
		<path class="st3" d="M42.7,262.6v39.2h-5v-31.6l-12,16.7H23l-11.9-16.7v31.6h-5v-39.2h5.5l12.8,17.9l12.8-17.9H42.7z"/>
		<path class="st3" d="M60.1,300c-2.8-1.8-4.9-4.2-6.3-7.3c-1.4-3.1-2.1-6.6-2.1-10.5c0-3.8,0.7-7.3,2.1-10.3
			c1.4-3.1,3.5-5.5,6.3-7.3c2.8-1.8,6.2-2.7,10.3-2.7c4,0,7.4,0.9,10.2,2.7c2.8,1.8,4.9,4.3,6.3,7.3c1.4,3.1,2.1,6.5,2.1,10.3
			c0,3.9-0.7,7.4-2.1,10.5c-1.4,3.1-3.5,5.5-6.3,7.3c-2.8,1.8-6.2,2.7-10.2,2.7C66.3,302.6,62.9,301.7,60.1,300z M77.6,296.1
			c2-1.4,3.6-3.3,4.6-5.8c1.1-2.4,1.6-5.2,1.6-8.3c0-3-0.5-5.6-1.6-8c-1.1-2.4-2.6-4.3-4.7-5.7c-2-1.4-4.4-2.1-7.2-2.1
			c-2.9,0-5.4,0.7-7.4,2.1c-2,1.4-3.6,3.3-4.6,5.7c-1,2.4-1.6,5.1-1.6,8.1c0,3.1,0.5,5.8,1.6,8.2c1,2.4,2.6,4.3,4.6,5.7
			c2,1.4,4.5,2.1,7.4,2.1C73.2,298.2,75.6,297.5,77.6,296.1z"/>
		<path class="st3" d="M125.6,267.6c3.3,3.3,4.9,8.2,4.9,14.7c0,6.5-1.6,11.4-4.9,14.6c-3.3,3.3-8.1,4.9-14.6,4.9H98v-39.2h13
			C117.5,262.6,122.3,264.2,125.6,267.6z M121.8,270.6c-2.4-2.4-6-3.7-10.8-3.7h-8v30.4h8c4.8,0,8.4-1.2,10.8-3.7
			c2.4-2.4,3.6-6.3,3.6-11.6C125.4,276.9,124.2,273.1,121.8,270.6z"/>
		<path class="st3" d="M163.6,297.4v4.3h-24v-39.2h23.7v4.3h-18.7v13h16.1v4.3h-16.1v13.2H163.6z"/>
		<path class="st3" d="M194.2,297.2v4.5h-21.4v-39.2h5v34.7H194.2z"/>
		<path class="st3" d="M239.4,267.1h-11.8v34.7h-5.1v-34.7h-11.8v-4.5h28.6V267.1z"/>
		<path class="st3" d="M260.1,285.2h-7.6v16.6h-5v-39.2h13.7c8.5,0,12.8,3.8,12.8,11.4c0,3-0.7,5.4-2.1,7.3c-1.4,1.8-3.6,3-6.4,3.6
			l10.5,17h-5.7L260.1,285.2z M252.5,280.8h8.7c5.1,0,7.7-2.3,7.7-6.8c0-2.4-0.6-4.2-1.9-5.3c-1.3-1.1-3.2-1.7-5.8-1.7h-8.7V280.8z"
			/>
		<path class="st3" d="M306,290.3h-16.3l-4.2,11.4h-5.2l14.7-39.6h5.6l14.8,39.6h-5.2L306,290.3z M304.3,285.8l-6.5-17.5l-6.5,17.5
			H304.3z"/>
		<path class="st3" d="M322.8,262.6h5v39.2h-5V262.6z"/>
		<path class="st3" d="M369.2,262.6v39.2h-5.5L344.4,271v30.8h-5v-39.2h5.4l19.3,30.8v-30.8H369.2z"/>
		<path class="st3" d="M390.4,299.8v-4.8c4,2.1,8.4,3.2,13.4,3.2c2.9,0,5-0.6,6.3-1.8c1.3-1.2,2-2.8,2-4.8c0-1.9-0.6-3.3-1.8-4.2
			c-1.2-0.9-3-1.7-5.4-2.4l-3.5-1c-2-0.6-3.7-1.3-5.1-2c-1.4-0.8-2.6-1.9-3.5-3.3c-0.9-1.4-1.4-3.3-1.4-5.6c0-3.7,1.1-6.5,3.2-8.4
			c2.2-1.9,5.2-2.9,9.2-2.9c2.3,0,4.3,0.2,6.1,0.6c1.8,0.4,3.6,1.1,5.5,1.9v4.7c-3.5-1.9-7.4-2.8-11.6-2.8c-2.6,0-4.4,0.6-5.6,1.8
			c-1.2,1.2-1.8,2.8-1.8,4.9c0,1.9,0.6,3.3,1.7,4.2c1.1,0.9,2.9,1.7,5.2,2.4l3.6,1c2.1,0.6,3.9,1.3,5.3,2c1.5,0.8,2.7,1.9,3.6,3.4
			c0.9,1.5,1.4,3.4,1.4,5.7c0,3.4-1.2,6.1-3.6,8.1c-2.4,2-5.6,3-9.7,3C398.8,302.6,394.3,301.7,390.4,299.8z"/>
		<path class="st3" d="M456.2,262.6v39.2h-5v-17.4h-19.7v17.4h-5v-39.2h5v17.2h19.7v-17.2H456.2z"/>
		<path class="st3" d="M473.6,300c-2.8-1.8-4.9-4.2-6.3-7.3c-1.4-3.1-2.1-6.6-2.1-10.5c0-3.8,0.7-7.3,2.1-10.3
			c1.4-3.1,3.5-5.5,6.3-7.3c2.8-1.8,6.2-2.7,10.3-2.7c4,0,7.4,0.9,10.2,2.7c2.8,1.8,4.9,4.3,6.3,7.3c1.4,3.1,2.1,6.5,2.1,10.3
			c0,3.9-0.7,7.4-2.1,10.5c-1.4,3.1-3.5,5.5-6.3,7.3c-2.8,1.8-6.2,2.7-10.2,2.7C479.8,302.6,476.4,301.7,473.6,300z M491.1,296.1
			c2-1.4,3.6-3.3,4.6-5.8c1.1-2.4,1.6-5.2,1.6-8.3c0-3-0.5-5.6-1.6-8c-1.1-2.4-2.6-4.3-4.7-5.7c-2-1.4-4.4-2.1-7.2-2.1
			c-2.9,0-5.4,0.7-7.4,2.1c-2,1.4-3.6,3.3-4.6,5.7c-1,2.4-1.6,5.1-1.6,8.1c0,3.1,0.5,5.8,1.6,8.2c1,2.4,2.6,4.3,4.6,5.7
			c2,1.4,4.5,2.1,7.4,2.1C486.7,298.2,489.1,297.5,491.1,296.1z"/>
		<path class="st3" d="M538,274.2c0,3.8-1.1,6.7-3.2,8.7s-5.3,3-9.6,3h-8.7v15.9h-5v-39.2h13.7C533.7,262.6,538,266.5,538,274.2z
			 M531,268.7c-1.3-1.2-3.2-1.7-5.8-1.7h-8.7v14.5h8.7c5.1,0,7.7-2.4,7.7-7.2C532.9,271.7,532.2,269.8,531,268.7z"/>
	</g>
</g>
</svg>
