<svg version="1.1" id="Layer_1" xmlns="http://www.w3.org/2000/svg" xmlns:xlink="http://www.w3.org/1999/xlink" x="0px" y="0px"
	 viewBox="0 0 243 112.5" style="enable-background:new 0 0 243 112.5;" xml:space="preserve">
<g>
	<g>
		<g>
			<g>
				<polygon style="fill:#C9C9C9;" points="164,97 79,97 79,90 67,90 67,109 176,109 176,91 164,91 				"/>
			</g>
		</g>
	</g>
	<path style="fill:#333333;" d="M101.3,41H89v39h11.8c7.3,0,13.1-1.8,17.4-5.5c4.4-3.6,6.5-8.5,6.5-14.5
		C124.7,47.3,116.9,41,101.3,41z M112.4,69.6c-2.6,2.2-6.3,3.4-11,3.4H96V48h5.6c9.8,0,14.7,4.1,14.7,12.2
		C116.4,64.3,115.1,67.4,112.4,69.6z"/>
	<polygon style="fill:#333333;" points="143,80 143,48 156,48 156,41 123,41 123,48 135,48 135,80 	"/>
	<g>
		<g>
			<g>
				<rect x="164" y="31" style="fill:#1B3854;" width="72" height="14"/>
			</g>
		</g>
	</g>
	<g>
		<g>
			<g>
				<rect x="164" y="52" style="fill:#1C7178;" width="48" height="14"/>
			</g>
		</g>
	</g>
	<g>
		<g>
			<g>
				<rect x="164" y="72" style="fill:#27A6A3;" width="29" height="14"/>
			</g>
		</g>
	</g>
	<g>
		<g>
			<g>
				<rect x="7" y="29" style="fill:#1B3854;" width="72" height="14"/>
			</g>
		</g>
	</g>
	<g>
		<g>
			<g>
				<rect x="31" y="50" style="fill:#1C7178;" width="48" height="14"/>
			</g>
		</g>
	</g>
	<g>
		<g>
			<g>
				<rect x="50" y="72" style="fill:#27A6A3;" width="29" height="14"/>
			</g>
		</g>
	</g>
	<g>
		<g>
			<g>
				<polygon style="fill:#C9C9C9;" points="79,19 163,19 163,25 176,25 176,7 67,7 67,25 79,25 				"/>
			</g>
		</g>
	</g>
</g>
</svg>
